<mxfile host="app.diagrams.net" modified="2024-06-11T02:36:25.436Z" agent="Mozilla/5.0 (Windows NT 10.0; Win64; x64) AppleWebKit/537.36 (KHTML, like Gecko) Chrome/125.0.0.0 Safari/537.36" version="24.3.0" etag="KvfXpKyGdryJNaTLm80E" type="github">
  <diagram name="Page-1" id="Np5zCdx_HuC4QUiQZfgv">
    <mxGraphModel>
      <root>
        <mxCell id="0" />
        <mxCell id="1" parent="0" />
      </root>
    </mxGraphModel>
  </diagram>
</mxfile>
